<svg width="173" height="163" viewBox="0 0 173 163" fill="none" xmlns="http://www.w3.org/2000/svg">
<path d="M109.863 0.000272139C118.108 0.000271808 126.271 1.49104 133.888 4.38746C141.505 7.28389 148.425 11.5292 154.255 16.8811C160.085 22.233 164.709 28.5866 167.864 35.5792C171.019 42.5718 172.643 50.0664 172.643 57.6351L109.863 57.6351L109.863 0.000272139Z" fill="black"/>
<path d="M62.7793 46.8284C71.0236 46.8284 79.1871 48.3192 86.8039 51.2156C94.4206 54.112 101.341 58.3574 107.171 63.7093C113.001 69.0612 117.625 75.4148 120.78 82.4074C123.935 89.3999 125.559 96.8945 125.559 104.463L62.7793 104.463L62.7793 46.8284Z" fill="black"/>
</svg>
